<svg xmlns="http://www.w3.org/2000/svg" width="27.212" height="27.74" viewBox="0 0 27.212 27.74">
  <g id="setting-lines" transform="translate(31.215 0.5) rotate(90)">
    <path id="Path_15" data-name="Path 15" d="M5.714,54.16H.786a.786.786,0,0,1,0-1.573H5.714a.786.786,0,0,1,0,1.573Z" transform="translate(0 -45.268)" stroke="#000" stroke-width="1"/>
    <path id="Path_16" data-name="Path 16" d="M87.738,11.708a3.6,3.6,0,1,1,3.6-3.6A3.606,3.606,0,0,1,87.738,11.708Zm0-5.632a2.029,2.029,0,1,0,2.029,2.03A2.032,2.032,0,0,0,87.738,6.076Z" transform="translate(-79.208)" stroke="#000" stroke-width="1"/>
    <path id="Path_17" data-name="Path 17" d="M241.546,54.16H229.791a.786.786,0,0,1,0-1.573h11.754a.786.786,0,0,1,0,1.573Z" transform="translate(-215.593 -45.268)" stroke="#000" stroke-width="1"/>
    <path id="Path_18" data-name="Path 18" d="M268.031,173.978a3.6,3.6,0,1,1,3.6-3.6A3.606,3.606,0,0,1,268.031,173.978Zm0-5.631a2.029,2.029,0,1,0,2.029,2.029A2.031,2.031,0,0,0,268.031,168.347Z" transform="translate(-248.942 -152.767)" stroke="#000" stroke-width="1"/>
    <path id="Path_19" data-name="Path 19" d="M13.421,216.423H.786a.786.786,0,0,1,0-1.573H13.421a.786.786,0,0,1,0,1.573Z" transform="translate(0 -198.027)" stroke="#000" stroke-width="1"/>
    <path id="Path_20" data-name="Path 20" d="M365.421,216.423h-4.048a.786.786,0,0,1,0-1.573h4.048a.786.786,0,0,1,0,1.573Z" transform="translate(-339.468 -198.027)" stroke="#000" stroke-width="1"/>
    <path id="Path_21" data-name="Path 21" d="M72.715,336.242a3.6,3.6,0,1,1,3.6-3.6A3.606,3.606,0,0,1,72.715,336.242Zm0-5.632a2.029,2.029,0,1,0,2.029,2.029A2.032,2.032,0,0,0,72.715,330.61Z" transform="translate(-65.065 -305.527)" stroke="#000" stroke-width="1"/>
    <path id="Path_22" data-name="Path 22" d="M227.4,378.687H214.765a.786.786,0,0,1,0-1.573H227.4a.786.786,0,1,1,0,1.573Z" transform="translate(-201.447 -350.788)" stroke="#000" stroke-width="1"/>
    <path id="Path_23" data-name="Path 23" d="M4.834,378.686H.786a.786.786,0,0,1,0-1.573H4.834a.786.786,0,0,1,0,1.573Z" transform="translate(0 -350.787)" stroke="#000" stroke-width="1"/>
  </g>
</svg>
